<svg width="1947" height="370" viewBox="0 0 1947 370" fill="none" xmlns="http://www.w3.org/2000/svg">
<path d="M196.321 0.203125H164.229H121.342L0.405273 203.144H75.3839L164.229 54.0693V166.05H239.208V0.203125H196.321Z" fill="#B6FAD1"/>
<path d="M239.225 166.05L150.38 315.143V203.144H75.4014V369.009H118.27H150.38H193.267L314.204 166.05H239.225Z" fill="#B6FAD1"/>
<path d="M387.841 268.982L450.718 94.8599H481.927L544.805 268.982H512.639L498.589 228.725H433.56L419.509 268.982H387.822H387.841ZM442.626 202.997H489.798L469.789 146.777C468.355 142.253 466.7 137.011 466.222 133.443C465.504 136.772 464.088 142.013 462.415 146.777L442.645 202.997H442.626Z" fill="#B6FAD1"/>
<path d="M562.938 268.981V91.7505H591.756V268.981H562.938Z" fill="#B6FAD1"/>
<path d="M633.208 268.981V175.612H610.588V151.318H633.208V114.628H662.266V151.318H685.143V175.612H662.266V268.981H633.208Z" fill="#B6FAD1"/>
<path d="M695.147 210.132C695.147 173.203 719.202 147.732 753.74 147.732C788.278 147.732 811.395 171.309 811.395 207.999V216.808L722.789 217.047C724.922 237.773 735.883 248.256 755.175 248.256C771.138 248.256 781.62 242.058 784.949 230.858H811.873C806.871 256.587 785.427 272.071 754.696 272.071C719.681 272.071 695.147 246.582 695.147 210.132V210.132ZM723.487 198.454H782.558C782.558 182.252 771.358 171.53 753.979 171.53C736.6 171.53 726.356 180.817 723.487 198.454Z" fill="#B6FAD1"/>
<path d="M908.59 177.747H897.869C876.903 177.747 863.809 188.947 863.809 211.806V268.983H834.752V151.54H862.136L863.809 168.699C868.811 157.021 880.011 149.168 895.735 149.168C899.781 149.168 903.827 149.646 908.59 150.842V177.765V177.747Z" fill="#B6FAD1"/>
<path d="M951.439 268.983V98.4282H1053.4V114.152H968.598V175.614H1045.54V191.099H968.598V253.259H1053.64V268.983H951.458H951.439Z" fill="#B6FAD1"/>
<path d="M1084.15 268.982V153.691H1098.44L1100.81 173.7C1108.44 158.932 1123.69 150.601 1140.35 150.601C1172.03 150.601 1185.13 169.415 1185.13 198.472V268.982H1168.69V202.04C1168.69 175.116 1156.55 165.589 1137.48 165.589C1113.9 165.589 1100.55 182.748 1100.55 208.715V268.982H1084.11H1084.15Z" fill="#B6FAD1"/>
<path d="M1263.53 150.601C1283.54 150.601 1298.78 159.888 1306.18 176.808L1307.85 153.709H1322.14V265.432C1322.14 299.731 1300.22 322.131 1266.4 322.131C1236.86 322.131 1216.14 305.45 1211.61 277.588H1228.05C1231.62 296.163 1245.91 307.124 1266.64 307.124C1290.21 307.124 1305.94 291.161 1305.94 267.106V239.704C1298.08 255.906 1282.12 265.432 1262.35 265.432C1229.49 265.432 1209.48 239.465 1209.48 208.035C1209.48 176.605 1229.73 150.638 1263.55 150.638L1263.53 150.601ZM1264.72 250.646C1289.74 250.646 1304.5 232.55 1304.5 207.778C1304.5 183.005 1290.21 165.148 1264.96 165.148C1239.71 165.148 1225.9 184.44 1225.9 207.778C1225.9 231.115 1240.43 250.646 1264.72 250.646Z" fill="#B6FAD1"/>
<path d="M1351.67 109.866C1351.67 103.19 1357.15 97.4893 1363.83 97.4893C1370.51 97.4893 1376.23 103.209 1376.23 109.866C1376.23 116.524 1370.51 122.022 1363.83 122.022C1357.15 122.022 1351.67 116.542 1351.67 109.866V109.866ZM1355.72 153.691H1372.16V268.982H1355.72V153.691Z" fill="#B6FAD1"/>
<path d="M1405.74 268.982V153.691H1420.03L1422.4 173.7C1430.04 158.932 1445.28 150.601 1461.94 150.601C1493.63 150.601 1506.73 169.415 1506.73 198.472V268.982H1490.28V202.04C1490.28 175.116 1478.15 165.589 1459.08 165.589C1435.5 165.589 1422.15 182.748 1422.15 208.715V268.982H1405.71H1405.74Z" fill="#B6FAD1"/>
<path d="M1530.82 211.328C1530.82 175.356 1553.22 150.583 1586.08 150.583C1618.95 150.583 1638.48 172.726 1638.48 205.369V213.461H1546.76C1547.96 241.562 1562.73 257.764 1587.5 257.764C1606.31 257.764 1618.47 249.672 1622.75 234.426H1638.48C1632.28 258.72 1614.42 271.833 1587.26 271.833C1553.44 271.833 1530.8 247.539 1530.8 211.328H1530.82ZM1547.26 201.562H1622.05C1622.05 179.402 1607.76 164.634 1586.08 164.634C1564.4 164.634 1550.11 178.923 1547.26 201.562Z" fill="#B6FAD1"/>
<path d="M1655.89 211.328C1655.89 175.356 1678.29 150.583 1711.16 150.583C1744.02 150.583 1763.55 172.726 1763.55 205.369V213.461H1671.84C1673.03 241.562 1687.8 257.764 1712.57 257.764C1731.39 257.764 1743.54 249.672 1747.83 234.426H1763.55C1757.35 258.72 1739.5 271.833 1712.33 271.833C1678.51 271.833 1655.87 247.539 1655.87 211.328H1655.89ZM1672.33 201.562H1747.13C1747.13 179.402 1732.84 164.634 1711.16 164.634C1689.47 164.634 1675.18 178.923 1672.33 201.562Z" fill="#B6FAD1"/>
<path d="M1849.32 167.024H1840.28C1819.07 167.024 1805.5 181.314 1805.5 203.235V268.982H1789.06V153.691H1804.54L1805.74 171.548C1810.26 159.153 1822.42 151.061 1838.6 151.061C1842.17 151.061 1845.28 151.3 1849.32 152.256V167.024Z" fill="#B6FAD1"/>
<path d="M1876.47 236.577C1876.47 249.91 1886.47 258.26 1902.68 258.26C1920.53 258.26 1931.02 250.628 1931.02 238.251C1931.02 228.724 1926.25 223.244 1912.68 219.915L1892.91 214.913C1872.9 209.911 1863.14 199.428 1863.14 183.704C1863.14 163.456 1880.06 150.601 1904.83 150.601C1929.6 150.601 1944.85 163.934 1945.56 185.378H1929.6C1929.12 172.045 1919.83 164.173 1904.35 164.173C1888.86 164.173 1879.1 171.088 1879.1 183.465C1879.1 192.274 1885.3 198.472 1897.91 201.58L1917.68 206.582C1937.69 211.584 1946.74 220.872 1946.74 237.552C1946.74 258.278 1929.12 271.851 1902.91 271.851C1876.71 271.851 1860.75 258.039 1860.75 236.596H1876.47V236.577Z" fill="#B6FAD1"/>
</svg>
